<svg width="48" height="65" viewBox="0 0 48 65" fill="none" xmlns="http://www.w3.org/2000/svg">
<path fill-rule="evenodd" clip-rule="evenodd" d="M6.49804 19.0707C2.66645 23.2591 0.349609 28.8149 0.349609 34.9338C0.349609 45.6865 7.56751 54.7769 17.4296 57.599C18.0528 43.518 17.578 31.9338 7.1812 19.8433L6.49804 19.0707ZM33.4706 13.3381C30.5601 12.0602 27.3222 11.3476 23.9359 11.3476C17.9938 11.3476 12.5875 13.5465 8.42857 17.1402L9.11173 17.5854C11.6665 19.2201 14.9348 21.0317 18.2907 21.9233C17.3107 20.9718 16.6275 19.7244 16.4791 18.2686C16.1822 15.0907 18.5285 12.2686 21.677 11.9423C24.8559 11.6444 27.7075 13.9917 28.0043 17.1402C28.1822 18.7149 27.678 20.2002 26.757 21.3286C29.7275 19.7539 31.8959 16.6349 33.4706 13.3381ZM23.9359 58.4906C36.9454 58.4906 47.5211 47.9443 47.5211 34.9338C47.5211 27.0917 43.719 20.1697 37.8664 15.8928C35.7275 30.597 30.9454 45.5085 23.7864 58.4906H23.9359Z" fill="#103E4E"/>
<path fill-rule="evenodd" clip-rule="evenodd" d="M38.6673 2.72211e-05L39.261 4.60423L43.8358 5.43582L39.6473 7.45683L40.2715 12.061L37.0631 8.67472L32.8747 10.6937L35.1031 6.62423L31.8652 3.23792L36.44 4.1L38.6673 2.72211e-05Z" fill="#ED1B36"/>
<path fill-rule="evenodd" clip-rule="evenodd" d="M21.8244 13.4564C24.2012 13.2186 26.2812 14.9417 26.518 17.288C26.7559 19.6354 25.0318 21.7438 22.6559 21.9817C20.3096 22.1901 18.2307 20.467 17.9928 18.1206C17.7549 15.7743 19.478 13.6649 21.8244 13.4564ZM8.30859 18.8628C24.1422 28.9038 32.1327 23.467 37.2127 7.9312C35.4296 30.6554 27.4096 50.6185 18.616 64.1942C19.478 46.9048 20.6654 33.2406 8.30859 18.8628Z" fill="#ED1B36"/>
</svg>
