<svg width="1040" height="529" viewBox="0 0 1040 529" fill="none" xmlns="http://www.w3.org/2000/svg">
<path d="M241.637 48.5065C241.264 45.5532 240.508 42.6608 239.39 39.902C239.247 39.3803 238.997 38.894 238.656 38.4741C238.315 38.0542 237.891 37.71 237.41 37.4632C236.766 37.2959 236.092 37.2884 235.445 37.4412L225.358 38.9847C224.513 39.0233 223.705 39.3374 223.056 39.879C221.742 41.2607 223.036 43.4855 222.996 45.3917C222.95 47.5352 221.046 49.2751 218.981 49.8507C216.873 50.2767 214.698 50.2497 212.601 49.7716L198.496 47.5797C202.65 46.2535 206.348 43.786 209.167 40.459C211.023 38.2601 212.01 34.1548 209.328 33.1135C208.531 32.8948 207.7 32.828 206.878 32.9168C200.487 32.9665 195.458 27.6308 189.476 25.3836C185.647 24.0382 181.49 23.9382 177.601 25.0976C173.712 26.257 170.289 28.6166 167.821 31.8389L175.335 32.2012C176.042 32.1622 176.743 32.3491 177.336 32.735C178.983 34.0879 176.936 36.6867 177.168 38.8052C177.469 41.5577 181.124 42.1454 183.879 42.4237C186.634 42.7021 190.129 44.9404 188.804 47.3717C174.957 52.1411 160.867 38.0485 146.325 39.7833C142.644 40.2223 139.169 41.6682 135.575 42.5773C113.625 48.1312 90.9315 33.3129 68.5076 36.4512C63.5225 37.301 58.623 38.5932 53.8672 40.3124C50.8153 41.3145 47.6319 42.3974 45.4144 44.7214C43.1969 47.0454 42.3529 51.0199 44.4537 53.4499C38.6635 53.9267 32.8346 53.3727 27.2379 51.8135C28.7514 52.6548 30.0104 53.888 30.8829 55.3836C31.7554 56.8793 32.2092 58.5823 32.1966 60.3138C23.1559 61.788 14.3545 64.4717 6.02934 68.2925C7.58314 70.8764 9.39798 73.294 11.4453 75.5073L0 82.8603C3.86678 83.8346 5.866 89.1072 3.61733 92.4003C7.62674 90.6166 10.1116 86.0024 14.399 85.0669C17.2078 84.4541 20.0658 85.6031 22.7304 86.6825C25.395 87.7619 28.3237 88.8085 31.0821 87.9984C33.8405 87.1883 35.8751 83.6116 34.1223 81.3328C45.9125 77.8928 58.0974 75.9891 70.375 75.6689C71.3222 75.55 72.2828 75.7323 73.1206 76.1899C74.7189 77.2988 74.2984 79.6937 74.2123 81.637C74.1262 83.5803 75.6408 86.1344 77.3776 85.2584C75.3342 87.0303 77.0811 90.3661 79.0415 92.2294C81.0019 94.0927 83.3648 96.6637 82.1646 99.0875C81.8513 99.7201 81.32 100.226 81.0186 100.865C80.129 102.749 81.5415 104.945 83.2076 106.197C84.8737 107.448 86.9146 108.322 88.0719 110.055C89.2293 111.788 88.7037 114.82 86.6341 115.062L80.7518 107.594C78.742 109.678 77.3642 112.289 76.7781 115.124C83.0159 120.223 83.9541 130.602 78.7319 136.737C76.0633 139.873 72.2682 141.778 68.9559 144.223C65.6437 146.669 62.5788 150.151 62.5871 154.268C62.6015 161.381 62.0203 167.99 64.6858 174.584C69.6009 186.745 75.2755 198.584 81.6762 210.032C83.357 213.038 85.5294 216.333 88.9344 216.85C84.6311 206.374 80.7573 195.735 77.3129 184.933C79.5563 184.942 82.1488 185.12 83.4639 186.937C84.5529 188.442 84.319 190.489 84.6574 192.315C85.0878 194.085 85.8054 195.772 86.7818 197.31L107.331 233.914C109.035 236.949 110.989 240.206 114.245 241.435C116.326 242.221 118.735 242.073 120.65 243.204C122.152 244.09 123.164 245.664 124.695 246.5C129.024 248.861 135.043 244.332 139.089 247.152C140.245 247.958 140.981 249.238 142.047 250.161C145.783 253.397 151.912 251.233 156.226 253.646C159.005 255.202 160.446 258.313 161.929 261.132C165.643 268.194 171.652 275.113 179.611 275.675C182.111 275.852 184.665 275.378 187.109 275.934C189.553 276.49 191.959 278.623 191.566 281.098C190.894 285.342 192.991 289.99 192.428 294.249C191.402 302.009 180.396 305.419 179.45 313.189C179.243 314.89 179.567 316.646 179.162 318.311C178.666 320.352 177.133 322.013 176.588 324.042C175.556 327.886 178.31 331.712 181.336 334.298C184.362 336.884 187.971 339.115 189.625 342.735C191.373 346.562 190.514 351.023 191.083 355.192C192.324 364.292 200.185 371.039 208.274 375.389C210.738 376.714 213.385 377.997 214.98 380.296C217.062 383.297 216.855 387.253 217.55 390.839C219.253 399.621 226.645 406.856 226.855 415.799C227.004 422.155 223.471 427.921 221.36 433.919C219.382 439.665 218.666 445.77 219.261 451.818C219.857 457.866 221.75 463.714 224.811 468.964C226.39 471.63 228.278 474.144 229.395 477.034C231.388 482.191 230.742 488.054 232.579 493.269C235.009 500.164 241.685 505.859 241.046 513.141C244.077 519.435 250.77 522.527 257.5 524.401L269.561 527.758C271.871 528.401 274.284 529.049 276.636 528.584C278.987 528.118 281.232 526.165 281.171 523.769C275.256 522.435 269.152 521.016 264.276 517.412C259.4 513.808 256.06 507.389 257.91 501.615C258.768 498.938 260.593 495.846 258.858 493.633C257.864 492.367 256.048 492.036 254.927 490.88C253.179 489.077 253.78 486.049 255.036 483.875C256.293 481.701 258.109 479.759 258.616 477.3C258.872 475.924 258.701 474.503 258.126 473.227C257.551 471.951 256.6 470.882 255.4 470.162C257.636 469.317 259.67 468.012 261.37 466.331C262.94 464.538 263.665 461.774 262.43 459.736C266.098 460.201 270.427 460.429 272.835 457.623C274.758 455.383 274.625 452.034 273.866 449.181C273.106 446.328 271.822 443.557 271.782 440.605C280.243 441.006 288.721 440.719 297.135 439.746C295.919 435.648 293.154 432.186 289.427 430.092C293.238 429.447 296.709 424.885 297.913 421.213C299.117 417.541 298.81 413.54 298.066 409.748C297.78 408.771 297.741 407.739 297.952 406.744C298.381 405.377 299.724 404.542 300.967 403.828L319.882 392.966C321.01 392.4 322.033 391.645 322.906 390.733C324.888 388.405 324.594 384.891 323.58 382.008C322.565 379.124 320.94 376.412 320.549 373.38C319.38 364.313 329.086 357.807 332.362 349.271C333.648 345.922 333.91 342.281 334.159 338.701C334.426 334.857 334.446 330.392 331.494 327.914C328.664 325.54 324.243 326.069 321.283 323.861C318.568 321.835 317.632 317.902 314.666 316.266C311.973 314.781 308.597 315.726 305.601 315.027C300.328 313.797 297.009 307.719 291.623 307.156C288.584 306.839 285.145 308.324 282.654 306.554C280.46 304.995 280.372 301.861 279.954 299.201C279.222 295.068 277.241 291.258 274.277 288.285C271.314 285.312 267.511 283.318 263.379 282.573C260.246 282.071 256.836 282.261 254.17 280.539C251.471 278.796 250.234 275.532 248.114 273.117C244.697 269.226 239.315 267.843 234.274 266.658L213.769 261.838C210.129 260.982 205.436 260.528 203.483 263.717C202.905 264.931 202.495 266.218 202.266 267.543C201.534 269.94 200.061 272.044 198.059 273.551C196.057 275.058 193.628 275.891 191.122 275.932C189.404 273 186.619 270.846 183.35 269.918C181.271 269.339 179.046 269.274 177.062 268.422C175.982 267.895 175.021 267.153 174.238 266.241C173.455 265.33 172.866 264.268 172.507 263.121C172.148 261.974 172.027 260.766 172.152 259.571C172.276 258.375 172.643 257.218 173.23 256.169C174.412 254.064 174.869 251.629 174.529 249.239C174.19 246.848 173.073 244.636 171.351 242.944C167.864 239.813 162.82 239.057 158.144 239.37C156.919 236.698 158.967 233.683 161.173 231.741C163.38 229.799 166.059 227.89 166.54 224.99C167.296 220.429 161.475 216.964 157.056 218.325C152.637 219.685 149.817 223.977 147.952 228.208C146.883 230.636 145.973 233.192 144.286 235.239C142.598 237.286 139.881 238.752 137.311 238.095C133.672 237.165 132.267 232.842 131.461 229.173C130.381 224.252 129.294 219.261 129.52 214.228C129.747 209.194 131.444 204.025 135.156 200.617C141.204 195.064 150.484 195.609 158.647 196.494C156.718 194.321 157.195 190.659 159.259 188.614C160.348 187.646 161.657 186.958 163.072 186.611C164.487 186.263 165.966 186.266 167.379 186.619C169.839 187.131 172.055 188.456 173.671 190.38C175.99 193.209 176.65 197.027 178.403 200.238C180.157 203.448 184.1 206.186 187.327 204.464C190.114 202.976 190.557 199.111 189.863 196.029C189.169 192.946 187.696 189.949 187.947 186.799C188.426 180.79 194.656 177.172 200.153 174.697C205.651 172.222 211.945 168.894 212.816 162.928C212.846 161.76 213.066 160.605 213.469 159.508C214.078 158.539 214.925 157.742 215.93 157.193C231.974 146.591 248.285 135.858 266.622 130.065C267.576 129.763 267.688 130.098 268.66 129.862C270.021 129.076 269.12 126.9 267.815 126.024C266.51 125.147 264.766 124.475 264.435 122.939C264.192 121.809 264.858 120.7 265.03 119.558C265.455 116.751 262.097 114.159 259.489 115.281C258.016 113.331 260.931 111.064 263.288 110.415C270.365 108.467 277.629 107.281 284.958 106.875C285.804 106.741 286.67 106.888 287.424 107.295C288.655 108.147 288.498 110.103 287.625 111.32C286.753 112.537 285.396 113.301 284.309 114.331C283.121 115.488 282.274 116.949 281.86 118.555C281.446 120.16 281.481 121.849 281.961 123.436C285.787 125.382 289.946 127.386 294.184 126.7C298.421 126.014 302.182 121.253 300.191 117.451C298.336 113.91 292.764 113.111 291.806 109.23C290.685 104.686 297.117 100.645 295.668 96.1949C295.033 94.2455 293.09 93.0983 291.6 91.6909C289.839 89.9653 288.642 87.7477 288.164 85.3292C287.687 82.9107 287.952 80.4044 288.925 78.1393C286.497 78.5665 284.002 78.4051 281.649 77.6688C279.296 76.9325 277.154 75.6427 275.403 73.9076C272.168 70.6434 269.588 65.4941 264.995 65.6401C260.78 65.7741 257.149 70.6915 253.208 69.1913C252.239 68.8222 251.216 68.071 250.277 68.5112C249.969 68.7111 249.711 68.9783 249.521 69.2927C249.332 69.6072 249.216 69.9605 249.184 70.3262C248.182 75.1145 249.905 80.5703 247.295 84.708C244.455 89.2107 237.886 89.835 234.444 93.8953C232.575 96.0993 231.851 99.0693 230.133 101.393C228.415 103.717 224.769 105.194 222.707 103.169C223.72 101.086 223.997 98.7212 223.492 96.4606C222.987 94.2001 221.73 92.1777 219.927 90.724C218.013 89.4753 215.95 88.4717 213.786 87.7369C211.368 86.7134 209.067 85.4313 206.925 83.9132C205.852 83.2658 204.98 82.3328 204.406 81.2183C203.953 79.8228 204.014 78.311 204.578 76.9566C205.624 73.9595 207.468 71.3048 209.912 69.2792C212.356 67.2536 215.307 65.934 218.446 65.4629C221.19 65.0895 224.385 65.221 226.202 63.1296C227.163 62.023 227.667 60.3499 229.062 59.9005C229.955 59.7212 230.881 59.8353 231.703 60.2257L241.949 63.8319C243.092 64.348 244.35 64.5561 245.598 64.4356C246.217 64.3522 246.782 64.0378 247.179 63.5555C247.576 63.0731 247.775 62.4586 247.738 61.8351C247.411 60.1337 244.793 59.3172 245.031 57.6011C245.164 57.045 245.463 56.5424 245.888 56.1597C249.586 52.2244 254.108 49.1552 259.13 47.1719C264.152 45.1885 269.551 44.3402 274.94 44.6875C276.233 46.8113 274.188 49.3263 272.486 51.1393C270.784 52.9523 269.417 56.1918 271.475 57.5874C272.318 58.0178 273.256 58.229 274.203 58.2017C276.725 58.5431 279.176 59.2866 281.463 60.404C285.004 61.9447 288.476 63.6305 291.881 65.4613C291.58 63.2165 291.293 60.8518 292.144 58.7529C292.995 56.654 295.413 55.0078 297.525 55.8251C299.56 56.6129 300.604 59.3081 302.773 59.5551C305.666 59.8845 306.807 55.6108 305.599 52.9619C304.39 50.313 301.998 48.095 301.798 45.1903C301.664 43.2308 302.409 40.8004 300.844 39.6139C300.287 39.2576 299.655 39.0359 298.997 38.9663L259.914 31.7741C257.593 31.347 254.239 31.6744 254.136 34.032C254.079 35.348 255.255 36.6499 254.734 37.8599C254.178 39.1513 252.353 39.0332 251.023 39.49C248.96 40.1987 247.925 42.6484 248.123 44.8208C248.486 46.9794 249.322 49.0309 250.571 50.8283C248.029 49.7651 244.179 49.5697 241.637 48.5065Z" fill="#103E4E"/>
<path d="M210.452 15.3291C207.987 14.5135 205.331 14.4755 202.844 15.2203C200.357 15.965 198.16 17.4566 196.549 19.4926C195.906 20.3399 195.365 21.508 195.904 22.4255C196.676 23.7409 198.644 23.2214 200.095 22.7508C202.228 21.9889 204.549 21.9335 206.716 22.5929C208.079 23.0607 209.298 23.8875 210.666 24.3376C211.332 24.6162 212.062 24.7082 212.776 24.6038C213.491 24.4994 214.163 24.2025 214.722 23.7449C215.661 22.787 215.72 21.2979 215.722 19.9564C215.787 19.5075 215.751 19.0498 215.616 18.6165C215.482 18.1833 215.253 17.7855 214.945 17.4522C214.397 17.135 213.782 16.9529 213.15 16.9212C211.734 16.6591 210.454 15.9111 209.53 14.8063" fill="#103E4E"/>
<path d="M224.543 11.4053C223.992 11.3753 223.442 11.4877 222.946 11.7316C222.45 11.9756 222.026 12.343 221.713 12.7984C221.401 13.2538 221.211 13.782 221.161 14.3321C221.112 14.8823 221.205 15.4359 221.431 15.9397C223.125 16.4017 224.895 16.517 226.634 16.279C227.502 16.1443 228.31 15.7558 228.957 15.1624C229.605 14.569 230.062 13.7974 230.271 12.9447C228.223 13.3174 226.11 12.9138 224.343 11.8126" fill="#103E4E"/>
<path d="M271.826 4.85224C267.216 5.83241 262.738 7.35372 258.484 9.38454C260.49 10.1553 262.194 11.5498 263.347 13.3625C264.499 15.1752 265.039 17.3102 264.887 19.453C264.707 20.2756 264.728 21.1295 264.948 21.9423C265.438 23.1303 266.857 23.576 268.106 23.8809C270.349 24.5635 272.69 24.8624 275.033 24.7651C276.204 24.7038 277.342 24.3513 278.344 23.7395C279.345 23.1277 280.177 22.2759 280.767 21.2613C281.106 20.2982 281.504 19.3569 281.959 18.4426C284.951 13.8856 293.84 19.3957 297.053 14.9913C298.184 13.4398 298.081 11.1043 299.556 9.87487C300.319 9.33923 301.204 9.00173 302.13 8.89274C308.59 7.60917 315.116 6.67974 321.678 6.10862C324.787 5.83805 328.84 4.72161 328.866 1.60077C317.155 -0.699254 305.012 0.934316 294.325 6.24752C290.474 8.17607 285.382 12.2328 281.673 9.67605C280.284 8.71874 280.353 6.14094 278.441 5.06447C276.487 3.96391 273.901 4.41153 271.826 4.85224Z" fill="#103E4E"/>
<path d="M310.127 12.0143L315.625 13.0706C314.613 13.0258 313.603 13.1973 312.662 13.5736C311.722 13.95 310.873 14.5226 310.171 15.2532C309.469 15.9838 308.932 16.8557 308.594 17.8105C308.256 18.7654 308.125 19.7814 308.211 20.7907C313.359 22.5105 318.972 20.8369 324.395 21.0655C329.818 21.2941 336.127 25.1678 335.202 30.5161C334.922 32.1332 333.988 33.7493 334.473 35.3169C334.814 36.4156 335.783 37.1953 336.33 38.2072C337.47 40.3159 336.559 42.9831 335.119 44.9C333.68 46.8168 331.746 48.3463 330.483 50.3834C327.341 55.45 329.126 62 330.997 67.6603C331.539 69.799 332.538 71.7946 333.926 73.5091C336.699 76.4573 341.218 76.7137 345.265 76.7728C348.21 76.8158 351.584 76.6703 353.447 74.3882C355.879 71.4088 354.178 66.7602 355.779 63.2635C357.233 60.0878 360.938 58.7253 364.295 57.7591C370.444 55.9888 376.71 54.4838 382.524 51.8099C389.742 48.4896 396.489 43.3152 404.423 42.8878C406.649 42.7679 408.93 43.0306 411.074 42.4207C413.218 41.8109 415.255 39.9571 415.092 37.7339C414.954 35.8343 413.347 34.4394 412.091 33.0074C410.835 31.5754 409.849 29.3734 411.003 27.8583L431.8 23.9739C430.325 19.9564 429.177 14.6654 432.564 12.0504C433.787 11.1069 435.423 10.7298 436.464 9.58912C438.237 7.64502 437.345 4.29612 435.298 2.64277C433.251 0.989416 430.482 0.605601 427.86 0.387761C418.741 -0.369559 409.57 0.130863 400.433 0.631673C382.574 1.61065 364.714 2.58963 346.854 3.56859C343.258 3.76566 339.107 3.46459 335.81 4.69118C333.018 5.72961 331.033 7.63576 327.841 8.30547C321.947 9.54183 315.461 8.70521 310.127 12.0143Z" fill="#103E4E"/>
<path d="M408.611 55.4675C408.051 55.3789 407.478 55.5088 407.011 55.8304C406.702 56.1705 406.518 56.6058 406.49 57.0643C406.135 59.0881 406.558 61.1713 407.673 62.8967C408.242 63.7431 409.026 64.4219 409.946 64.8626C410.865 65.3034 411.885 65.49 412.901 65.4031C415.377 65.0875 417.201 62.9757 419.477 61.9452C422.984 60.3584 437.879 57.8847 427.576 52.3179C424.025 50.3995 421.73 52.093 418.931 53.3564C415.747 54.9855 412.179 55.7153 408.611 55.4675Z" fill="#103E4E"/>
<path d="M498.861 8.87166C497.658 9.36321 496.652 10.2394 495.999 11.3633C495.698 11.934 495.628 12.5985 495.804 13.2192C495.979 13.84 496.387 14.3695 496.942 14.6983C497.391 14.8612 497.867 14.9368 498.345 14.9209L503.237 15.0671C505.316 15.1292 507.912 15.5718 508.47 17.5746C508.885 19.0617 507.957 20.9727 509.077 22.0354C509.557 22.4076 510.135 22.633 510.741 22.6845C512.352 23.0985 514.035 23.1528 515.67 22.8436C519.23 21.8889 517.359 19.7164 518.48 17.7819C520.196 14.8221 519.899 16.6138 522.921 14.9175C525.153 13.6647 528.038 11.3921 526.175 8.19916C522.935 2.64666 503.642 6.48632 498.861 8.87166Z" fill="#103E4E"/>
<path d="M595.419 6.0801L592.578 6.45919C586.173 7.31403 579.73 8.17673 573.561 10.1004C576.231 11.1563 579.033 11.8439 581.889 12.1441C583.462 12.2212 585.023 12.4432 586.555 12.8073C589.28 13.6186 592.026 15.7135 594.659 14.6403C596.291 13.975 596.824 12.2753 598.176 11.3745C599.11 10.7525 602.651 9.74574 603.047 9.11794C606.248 4.04258 597.879 5.7518 595.419 6.0801Z" fill="#103E4E"/>
<path d="M607.894 18.9911C604.099 21.1129 600.579 23.6911 597.411 26.6683C596.076 27.923 594.713 29.4835 594.834 31.3113C594.995 33.7407 597.582 35.1499 599.824 36.0991L608.906 39.9439C610.007 38.3912 608.999 36.2477 607.86 34.7218C606.722 33.1959 605.369 31.4305 605.872 29.5943C606.446 27.4988 609.001 26.7848 611.143 26.4238C614.634 25.8356 624.051 25.8828 622.919 20.2571C621.586 13.6283 611.398 17.0325 607.894 18.9911Z" fill="#103E4E"/>
<path d="M606.067 394.118C605.202 396.621 605.12 399.57 606.615 401.755C608.294 404.207 611.652 405.121 614.557 404.499C617.451 403.729 620.03 402.071 621.931 399.758C623.67 397.821 625.1 395.627 626.172 393.254C627.668 389.557 628.723 385.696 629.316 381.752L632.135 366.948C632.765 363.639 632.741 353.496 626.66 356.801C624.999 357.704 621.152 364.832 619.411 366.853C616.274 370.497 615.858 374.032 614.207 378.445C612.138 383.974 607.979 388.581 606.067 394.118Z" fill="#103E4E"/>
<path d="M927.249 469.876C925.259 469.099 923.328 468.18 921.47 467.125C919.608 472.245 918.618 477.642 918.541 483.09L932.157 475.385C934.205 474.226 936.527 472.615 936.483 470.262C936.501 469.972 936.441 469.682 936.308 469.422C936.176 469.163 935.976 468.944 935.73 468.789C935.427 468.667 935.098 468.629 934.775 468.677C932.756 468.845 930.915 469.839 929.011 470.529C927.106 471.22 924.879 471.585 923.132 470.56" fill="#103E4E"/>
<path d="M999.075 474.45C997.581 474.857 996.121 475.381 994.709 476.017C991.584 477.607 989.459 480.626 986.647 482.72C983.956 484.724 980.717 485.824 977.537 486.894C976.602 487.721 977.032 489.386 978.047 490.112C979.139 490.733 980.391 491.015 981.643 490.92C984.947 490.993 988.427 491.025 991.32 489.43C992.951 488.372 994.476 487.161 995.876 485.814C999.26 482.991 1003.32 481.128 1007.34 479.329C1008.81 478.776 1010.16 477.967 1011.34 476.939C1013.87 474.449 1014.05 470.608 1010.4 469.761C1007.46 469.076 1001.88 473.543 999.075 474.45Z" fill="#103E4E"/>
<path d="M1030.81 453.719C1030.98 452.006 1030.75 450.278 1030.15 448.666C1029.54 447.054 1028.58 445.599 1027.34 444.413C1027.3 447.84 1027.2 451.492 1025.27 454.326C1023.89 456.346 1021.74 457.71 1020.24 459.634C1018.73 461.558 1018.06 464.607 1019.83 466.295C1020.96 467.153 1022.33 467.627 1023.75 467.645C1027.26 468.059 1031.33 468.289 1033.79 465.751C1035.14 464.365 1035.79 462.313 1037.43 461.294C1038.04 461.038 1038.59 460.647 1039.03 460.151C1039.71 459.075 1038.63 457.655 1037.42 457.267C1036.21 456.879 1034.87 457.062 1033.66 456.693C1032.44 456.325 1031.32 454.956 1031.95 453.847" fill="#103E4E"/>
<path d="M974.408 328.048C972.564 328.497 970.655 328.609 968.772 328.381C965.644 327.806 963.209 325.448 960.683 323.515C954.68 318.944 947.382 316.394 939.838 316.231C932.975 316.102 926.049 317.961 919.309 316.664C919.749 319.113 921.845 320.95 924.081 322.042C926.317 323.134 928.785 323.683 931.032 324.753C934.631 326.483 937.485 329.452 939.071 333.117C939.795 334.806 940.25 336.644 941.347 338.119C943.587 341.134 947.834 341.796 951.582 341.549C956.469 341.228 961.573 339.822 966.119 341.643C969.597 343.036 972.086 346.08 974.99 348.447C977.894 350.814 981.984 352.57 985.319 350.863C981.855 349.741 978.841 347.542 976.715 344.587C974.59 341.631 973.465 338.073 973.505 334.433C976.775 334.734 986.195 334.617 985.687 329.06C985.257 324.351 977.216 327.54 974.408 328.048Z" fill="#103E4E"/>
<path d="M931.624 366.365C932.204 363.181 935.38 360.368 934.391 357.286C933.707 355.154 931.235 354.102 928.997 354.049C926.759 353.996 924.56 354.663 922.322 354.726C920.865 354.649 919.405 354.669 917.951 354.788C913.509 355.518 910.771 360.175 906.584 361.83C904.038 362.837 901.178 362.644 898.531 363.34C892.521 364.92 888.718 370.599 884.517 375.178C877.729 382.543 868.886 387.7 859.133 389.982C855.716 390.773 852.043 391.279 849.327 393.498C845.73 396.437 844.844 401.475 844.044 406.051C841.833 418.687 838.454 431.09 833.951 443.102L848.222 444.924C850.935 445.27 853.746 445.609 856.36 444.805C858.26 444.089 860.059 443.13 861.714 441.954C868.069 438.008 875.183 435.44 882.593 434.417C886.33 433.904 890.248 433.81 893.755 435.199C897.262 436.588 900.271 439.738 900.565 443.499C902.081 443.027 903.697 442.976 905.241 443.351C906.784 443.727 908.196 444.514 909.327 445.63C911.561 447.907 913.025 450.828 913.51 453.981C913.886 455.933 914.262 458.272 916.074 459.091C917.552 459.76 919.247 459.04 920.864 458.911C926.35 458.472 930.903 464.869 936.296 463.767C942.079 462.586 943.499 453.924 949.141 452.189C952.382 451.193 956.928 452.404 958.479 449.39C959.847 446.733 957.118 443.667 957.4 440.692C957.746 437.029 962.067 435.474 965.398 433.911C976.882 428.523 982.332 413.066 976.767 401.667C973.47 394.913 966.982 389.596 965.784 382.176C964.862 376.467 967.112 369.81 963.473 365.317C961.621 363.031 958.486 361.769 957.384 359.041C956.691 357.324 956.97 355.376 956.596 353.563C956.223 351.749 954.641 349.852 952.85 350.322C947.651 351.687 945.992 367.747 943.208 371.649C938.977 377.581 930.291 373.674 931.624 366.365Z" fill="#103E4E"/>
<path d="M835.531 334.116C833.754 333.618 831.814 333.128 830.112 333.839C828.409 334.551 827.415 337.051 828.782 338.291C839.47 337.874 850.224 337.461 860.822 338.913C873.032 340.585 885.116 344.728 897.379 343.509C890.374 341.442 883.253 339.79 876.053 338.56L864.047 336.267C860.827 335.592 857.572 335.089 854.298 334.76C847.449 334.195 842.265 336.005 835.531 334.116Z" fill="#103E4E"/>
<path d="M846.229 296.891C845.342 296.816 844.243 296.753 843.784 297.516C843.346 298.244 843.848 299.208 843.612 300.025C843.289 301.142 841.827 301.427 840.675 301.275C839.523 301.123 838.276 300.759 837.256 301.314C836.738 301.668 836.349 302.18 836.147 302.773C835.945 303.367 835.941 304.01 836.135 304.606C836.552 305.79 837.227 306.866 838.111 307.757C839.621 309.659 841.341 311.384 843.239 312.9C846.913 315.611 851.89 316.918 854.203 320.855C854.53 321.617 855.031 322.293 855.668 322.825C856.778 323.529 858.227 322.994 859.423 322.447L863.615 320.532C864.37 320.26 865.044 319.801 865.574 319.199C866.532 317.9 865.944 316.052 865.14 314.652C864.336 313.252 863.307 311.803 863.48 310.198C863.787 307.337 867.467 306.242 868.98 303.794C870.505 301.326 869.512 298.146 869.688 295.25C869.893 291.863 872.022 287.457 868.598 284.927C865.688 282.777 862.906 284.764 860.817 287.138C856.412 292.145 854.328 297.567 846.229 296.891Z" fill="#103E4E"/>
<path d="M871.676 246.288C873.107 249.028 876.091 250.663 877.651 253.332C879.343 256.224 879.15 259.962 880.986 262.765C882.868 265.642 886.657 267.169 887.713 270.441C888.866 274.013 886.25 278.354 888.335 281.475C888.724 281.985 889.215 282.409 889.776 282.72C890.337 283.03 890.957 283.221 891.595 283.28C892.234 283.339 892.878 283.264 893.487 283.061C894.095 282.858 894.655 282.53 895.13 282.099C896.009 281.142 896.479 279.88 896.441 278.581C896.402 277.282 895.858 276.049 894.924 275.146C893.69 274.02 891.917 273.534 890.886 272.219C890.35 271.461 889.992 270.59 889.841 269.673C889.279 267.028 889.369 264.286 890.103 261.684C890.379 261.023 890.449 260.295 890.304 259.594C889.84 258.245 888.014 258.15 886.732 257.524C883.821 256.103 883.891 251.995 884.4 248.795C884.061 250.925 876.474 247.302 875.68 246.096C874.101 243.699 874.96 239.076 874.648 236.427C871.24 238.069 869.926 242.937 871.676 246.288Z" fill="#103E4E"/>
<path d="M795.239 288.449C793.839 286.882 791.73 285.242 789.852 286.187C788.42 286.908 788.026 288.89 788.587 290.393C789.271 291.852 790.324 293.107 791.642 294.035C795.555 297.261 799.768 300.174 803.181 303.925C809.289 310.637 812.525 319.695 819.168 325.879C820.504 327.313 822.272 328.27 824.202 328.603C826.138 328.783 828.311 327.545 828.534 325.614C828.717 324.023 827.608 322.599 826.524 321.42C823.944 318.614 821.119 316.03 818.682 313.097C817.557 311.97 816.85 310.494 816.678 308.911C816.666 307.332 818.106 305.679 819.636 306.07C817.775 305.594 816.395 302.494 813.664 301.911C811.381 301.424 810.829 302.837 808.113 301.672C802.932 299.45 798.867 292.511 795.239 288.449Z" fill="#103E4E"/>
<path d="M916.972 135.803C915.486 135.361 914.025 134.839 912.595 134.239C908.748 133.085 903.659 135.912 904.172 139.895C904.512 142.542 906.975 144.326 908.336 146.622C910.353 150.026 909.815 154.344 908.755 158.157C908.495 159.337 908 160.453 907.3 161.439C906.321 162.479 905.15 163.321 903.853 163.918C898.658 166.831 894.077 170.723 890.363 175.379C889.959 175.809 889.678 176.339 889.548 176.914C889.365 178.259 890.717 179.239 891.481 180.361C893.179 182.852 891.952 186.205 892.119 189.216C892.094 189.641 892.177 190.067 892.362 190.451C892.546 190.835 892.826 191.166 893.174 191.412C894.198 191.932 895.41 191.049 895.965 190.044C897.805 186.71 896.419 181.357 899.872 179.749C900.525 179.445 901.317 179.317 901.753 178.743C902.444 177.833 901.777 176.485 902.127 175.397C902.653 173.764 904.887 173.69 906.602 173.763C909.555 173.886 912.508 173.493 915.326 172.601C916.432 172.338 917.436 171.757 918.214 170.929C919.246 169.641 919.155 167.809 918.949 166.171C917.915 158.006 915.329 150.114 911.329 142.922C914.362 143.309 917.662 143.645 920.279 142.064C921.745 141.179 923.503 138.532 922.776 136.73C921.626 133.881 919.55 136.279 916.972 135.803Z" fill="#103E4E"/>
<path d="M528.122 180.709C528.485 182.656 528.842 184.706 528.204 186.581C527.566 188.456 525.559 190.022 523.663 189.448C522.192 189.002 521.343 187.523 520.298 186.395C514.49 180.125 501.386 183.755 497.798 175.998C496.334 172.832 497.329 169.039 496.33 165.697C495.7 163.765 494.446 162.098 492.766 160.956C491.085 159.814 489.073 159.263 487.045 159.389C485.195 159.656 483.395 160.194 481.702 160.984C470.357 165.527 458.448 168.506 446.301 169.838C443.992 169.979 441.708 170.395 439.498 171.076C434.511 172.884 431.103 177.508 428.677 182.227C426.252 186.946 424.461 192.054 421.21 196.246C417.792 200.652 413.004 203.738 408.537 207.075C406.816 208.184 405.383 209.686 404.356 211.456C403.388 213.445 403.442 215.757 403.517 217.967L404.43 244.811C404.548 248.264 404.695 251.84 406.241 254.93C408.17 258.788 411.982 261.315 414.627 264.724C417.326 268.227 418.732 272.554 418.607 276.974C418.55 278.751 418.374 280.853 419.758 281.969C420.6 282.515 421.585 282.799 422.588 282.783L458.9 285.755C465.287 286.278 472.366 287.138 476.536 292.004C478.504 294.301 480.086 297.604 483.1 297.85C484.393 297.956 485.651 297.425 486.945 297.323C490.208 297.064 493.074 299.541 494.883 302.269C497.622 306.426 498.864 311.392 498.408 316.349C498.111 319.461 497.147 322.486 496.939 325.605C496.147 337.473 506.208 347.784 506.403 359.676C506.517 366.672 503.197 373.207 499.959 379.41C505.184 387.325 500.906 397.866 502.986 407.121C504.96 415.9 512.28 422.773 514.104 431.585C514.939 435.619 514.987 440.584 518.545 442.661C520.106 443.422 521.836 443.769 523.569 443.667C534.026 443.791 544.362 441.438 553.735 436.8C558.133 434.617 562.692 431.359 563.46 426.509C564.079 422.598 562.096 418.223 564.115 414.816C566.494 410.801 572.588 411.119 576.088 408.032C581.767 403.024 577.339 393.472 579.64 386.259C581.708 379.774 588.827 376.33 592.356 370.51C593.745 368.007 594.741 365.306 595.311 362.501C596.928 355.797 597.934 348.961 598.318 342.075C598.412 337.891 598.72 333.715 599.242 329.564C603.046 305.926 626.415 290.098 634.002 267.39C634.726 265.221 635.067 262.332 633.137 261.105C631.993 260.559 630.696 260.423 629.463 260.721L612.724 262.831C610.645 263.093 608.442 263.338 606.532 262.475C604.623 261.611 603.254 259.196 604.267 257.361C607.11 252.211 601.262 245.704 598.664 240.426C591.667 226.216 583.335 212.703 573.779 200.07C573.168 199.42 572.785 198.588 572.688 197.701L577.439 197.859C575.835 192.105 573.189 185.808 567.598 183.703C564.448 182.516 560.96 182.927 557.598 183.11C547.971 183.636 537.65 182.183 528.122 180.709Z" fill="#103E4E"/>
<path d="M557.606 51.0337C560.125 53.7089 562.948 56.5454 566.593 57.0117C573.031 57.8353 577.66 51.1778 580.607 45.3951C580.716 46.8693 581.396 48.2428 582.503 49.2235C583.609 50.2042 585.054 50.7146 586.53 50.6463C588.12 50.3789 589.636 49.7859 590.985 48.9046C603.741 41.9338 618.029 38.2404 632.564 38.1561C632.425 37.055 632.698 35.9411 633.331 35.0296C633.964 34.118 634.913 33.4732 635.993 33.2197C638.949 32.6338 641.611 35.189 643.037 37.8432C644.462 40.4975 645.351 43.574 647.616 45.5608C649.882 47.5476 654.267 47.461 655.162 44.584C656.021 41.8219 653.143 39.4664 650.752 37.838C648.362 36.2095 645.842 33.1956 647.452 30.7924C659.665 28.0889 671.954 25.3751 684.452 24.8378C686.579 24.9119 688.7 24.5466 690.68 23.7649C692.586 22.8296 694.101 20.7066 693.588 18.6464C690.861 19.2875 688.004 19.1018 685.383 18.1131C682.762 17.1244 680.494 15.3774 678.87 13.0948C696.211 11.6638 714.655 10.4441 730.023 18.6038C731.867 22.5628 722.468 25.8566 724.983 29.4274C725.785 30.5663 727.392 30.6998 728.785 30.7257C739.464 30.924 750.205 31.1184 760.764 29.5061C764.623 28.9169 768.52 28.0851 772.394 28.5629C778.847 29.3587 784.366 33.6641 790.714 35.0679C793.298 35.6392 796.195 35.6586 798.373 34.1558C800.552 32.6529 801.488 29.231 799.703 27.2773C805.68 21.4192 815.6 22.8711 823.486 25.6757C831.371 28.4802 838.841 33.0031 847.187 33.6282C853.172 34.0765 859.239 32.4667 865.153 33.49C868.869 34.133 872.328 35.7861 875.96 36.8018C882.829 38.7228 890.096 38.3173 897.228 38.4098C915.426 38.6549 933.425 42.2315 950.334 48.9623C952.534 49.6785 954.549 50.8692 956.238 52.4503C957.811 54.1351 958.613 56.7533 957.556 58.8017L940.083 56.2487C941.73 59.4895 945.988 60.0418 949.447 61.1598C952.906 62.2778 956.492 66.0974 954.414 69.0794C950.666 67.8862 947.27 71.633 945.377 75.0804C943.484 78.5277 941.177 82.6564 937.25 82.8664C933.733 83.0544 929.479 80.0599 927.187 82.7336C930.354 86.7288 933.066 91.0644 935.273 95.6602C937.537 100.378 939.15 106.323 936.089 110.568C935.608 111.326 934.877 111.893 934.024 112.17C931.524 112.803 929.899 109.745 928.107 107.891C925.847 105.555 922.431 104.894 919.372 103.798C916.312 102.703 913.09 100.548 912.85 97.3072C912.701 95.2909 913.766 93.4166 914.55 91.553C915.868 88.4119 916.444 85.0094 916.234 81.6094C916.063 78.8742 915.296 76.0289 913.331 74.1178C911.367 72.2067 907.975 71.6004 905.867 73.3508C904.883 74.1675 904.094 75.474 902.816 75.5228C900.558 75.6092 898.825 71.6728 897.008 73.0165C897.221 74.4483 896.925 75.9094 896.17 77.1444C890.749 81.8588 882.422 79.8643 875.433 81.5297C872.11 82.4807 868.929 83.8701 865.973 85.6613C864.867 86.1341 863.926 86.924 863.269 87.9311C862.396 89.6263 863.358 91.7973 864.896 92.9244C866.526 93.9245 868.358 94.5499 870.26 94.7555C878.78 96.3691 887.423 98.8668 894.15 104.339C900.876 109.811 905.287 118.857 903.158 127.263L886.357 111.209C886.995 117.949 887.358 124.709 887.444 131.486C887.552 132.81 887.371 134.141 886.911 135.387C885.713 138.032 882.467 138.922 879.622 139.506C878.831 139.657 878.081 139.973 877.42 140.434C876.76 140.894 876.205 141.49 875.791 142.181C875.377 142.872 875.114 143.642 875.019 144.442C874.924 145.242 874.999 146.052 875.24 146.821C876.25 150.115 878.77 152.684 881.078 155.243C883.385 157.802 885.656 160.711 885.958 164.143C886.26 167.576 883.67 171.445 880.233 171.206C877.627 171.025 875.694 168.693 874.582 166.329C873.471 163.965 872.809 161.331 871.139 159.323C866.084 153.243 854.73 155.848 850.202 149.367C849.047 150.676 848.247 152.259 847.876 153.965C847.506 155.67 847.577 157.442 848.084 159.113C850.191 157.794 853.075 159.019 854.657 160.936C856.24 162.852 856.987 165.309 858.23 167.461C859.907 170.365 862.577 172.94 862.811 176.286C862.749 177.551 862.77 178.819 862.875 180.081C863.291 182.108 865.004 183.564 866.192 185.258C868.956 189.201 868.82 194.617 867.038 199.091C865.256 203.564 862.055 207.302 858.885 210.926C853.347 217.256 847.696 223.549 841.131 228.806C839.258 230.306 837.259 231.781 836.092 233.878C834.925 235.975 834.865 238.919 836.658 240.514C835.375 240.578 833.075 241.209 831.792 241.273C831.341 236.127 831.243 230.956 831.498 225.796C826.436 223.365 820.985 229.875 821.638 235.453C822.291 241.031 826.326 245.507 829.198 250.333C831.298 253.862 832.86 257.977 832.158 262.023C831.457 266.07 827.845 269.803 823.754 269.446C817.246 268.878 814.524 259.536 808.08 258.467C807.511 258.333 806.915 258.393 806.384 258.635C805.427 259.16 805.261 260.44 805.207 261.53C804.943 266.879 804.715 272.441 806.803 277.373C809.858 284.588 817.75 290.647 816.094 298.305C807.176 294.16 802.54 284.159 800.435 274.553C798.329 264.947 797.978 254.862 794.205 245.781C791.339 249.454 785.316 246.417 782.698 242.564C780.216 238.911 778.688 234.686 776.28 230.984C773.871 227.282 770.182 223.967 765.771 223.763C761.145 223.55 757.134 226.724 753.606 229.723C750.705 232.189 747.727 234.753 746.031 238.162C743.563 243.123 744.209 248.971 744.09 254.51C743.961 260.499 742.692 266.817 738.611 271.202C734.529 275.586 726.995 277.113 722.493 273.161C720.143 271.099 719.005 268.017 717.991 265.058C713.105 250.798 709.036 236.271 705.803 221.547C705.047 224.908 702.096 229.239 699.277 227.26C698.644 226.728 698.132 226.067 697.773 225.322C692.515 216.41 682.777 211.065 672.938 207.859C663.099 204.654 652.748 203.159 643.018 199.637C637.565 197.662 632.358 195.068 627.497 191.905C626.258 193.726 625.534 195.847 625.403 198.046C625.272 200.244 625.737 202.437 626.751 204.392C628.909 208.213 633.793 210.425 637.974 209.089C640.134 208.399 641.959 206.899 644.102 206.158C646.246 205.417 649.123 205.781 650.061 207.846C650.958 209.823 649.602 212.215 650.275 214.279C651.299 217.422 656.041 217.665 657.698 220.525C658.932 222.654 657.917 225.48 656.156 227.198C654.394 228.915 652.044 229.857 649.894 231.053C642.918 234.932 637.957 241.554 631.86 246.707C625.764 251.859 617.162 255.62 609.896 252.316C611.628 243.545 601.181 237.107 599.259 228.376C598.626 225.503 598.954 222.45 598.051 219.65C596.744 215.595 593.147 212.808 590.196 209.735C586.616 205.968 583.828 201.522 581.995 196.66C580.162 191.797 579.321 186.617 579.523 181.425C579.682 177.817 580.345 174.15 579.523 170.633C578.701 167.116 575.789 163.712 572.181 163.871C563.94 164.235 553.558 164.848 549.234 157.823C547.691 155.316 547.02 151.643 549.251 149.723C550.825 148.367 553.148 148.495 555.215 148.698L573.783 150.525C578.126 150.952 582.821 151.305 586.547 149.034C590.274 146.764 591.889 140.737 588.438 138.066C585.917 136.115 581.399 136.22 580.666 133.117C580.056 130.533 582.917 127.601 581.372 125.441C580.264 123.892 577.773 124.322 576.264 125.483C574.755 126.644 573.66 128.341 571.971 129.22C569.008 130.762 565.468 129.295 562.28 128.297C559.092 127.3 554.819 127.215 553.272 130.176C551.543 133.487 554.806 137.826 553.09 141.144C550.821 145.531 543.138 143.034 539.951 146.807C536.295 151.137 542.439 157.593 541.206 163.124C539.632 163.904 537.882 164.262 536.128 164.164C534.374 164.065 532.676 163.513 531.199 162.562C529.746 161.574 528.588 160.211 527.848 158.617C527.109 157.023 526.815 155.259 526.998 153.512C527.303 151.023 528.601 148.483 527.731 146.132C527.029 144.231 525.12 143.099 523.346 142.119L505.301 132.147C503.626 135.255 505.744 139.108 508.393 141.442C511.042 143.776 514.359 145.534 516.099 148.606C517.2 150.735 517.447 153.203 516.789 155.507C516.132 157.811 514.619 159.777 512.561 161.004C512.303 161.182 512.009 161.302 511.701 161.356C511.392 161.41 511.075 161.396 510.772 161.316C510.484 161.147 510.233 160.922 510.034 160.654C509.835 160.386 509.691 160.081 509.612 159.756C506.428 151.609 501.648 143.576 494.006 139.32C486.364 135.064 475.383 135.939 470.372 143.108C469.182 144.811 468.383 146.752 467.346 148.553C461.837 158.118 450.026 162.648 438.992 162.352C437.913 162.412 436.839 162.159 435.899 161.625C434.116 160.393 434.196 157.78 434.469 155.63L435.627 146.505C435.86 144.673 436.197 142.648 437.647 141.504C439.691 139.892 442.64 140.909 445.243 140.872C447.215 140.78 449.112 140.083 450.675 138.877C452.238 137.671 453.392 136.013 453.981 134.128C454.507 132.225 454.504 130.215 453.971 128.314C453.439 126.412 452.398 124.693 450.961 123.339C449.768 122.218 448.166 120.811 448.796 119.3C449.048 118.882 449.388 118.524 449.792 118.252C450.197 117.98 450.656 117.799 451.138 117.723C455.814 116.365 460.755 116.009 465.353 114.407C469.951 112.805 474.41 109.527 475.499 104.781C475.833 103.326 475.985 101.565 477.291 100.844C477.947 100.567 478.651 100.423 479.362 100.42C481.855 100.066 484.125 98.7907 485.725 96.8464C487.325 94.902 488.139 92.4291 488.007 89.9146C490.21 88.3748 493.298 89.5075 495.429 91.1452C497.561 92.783 499.443 94.9467 502.037 95.6527C506.872 96.9684 511.543 92.6883 516.553 92.6684C518.66 92.6601 520.841 93.405 522.823 92.6907C524.832 91.9666 526.032 89.9664 527.574 88.4887C529.117 87.011 531.823 86.1097 533.247 87.7016L532.034 78.7196C534.476 79.3365 537.022 79.4239 539.5 78.9757C541.979 78.5276 544.333 77.5544 546.404 76.1215L530.732 70.8262C530.187 70.6899 529.683 70.4208 529.267 70.0426C528.128 68.8157 529.259 66.9038 530.186 65.5091C532.402 62.1727 532.774 56.6768 529.129 55.0158C526.642 53.882 523.786 55.2429 521.398 56.5744L509.959 62.9524C509.596 65.1266 512.255 66.3589 513.902 67.8234C514.899 68.7095 515.605 69.8764 515.926 71.1708C516.248 72.4652 516.17 73.8266 515.704 75.0762C515.238 76.3257 514.404 77.405 513.313 78.1722C512.222 78.9395 510.925 79.3589 509.591 79.3752C510.344 80.3545 510.868 81.4906 511.122 82.6996C511.377 83.9085 511.357 85.1592 511.062 86.3592L503.366 86.9127C502.502 87.0865 501.605 86.9113 500.87 86.4255C500.047 85.6944 500.158 84.4134 499.968 83.3291C499.507 80.7122 496.945 78.8781 494.33 78.4078C491.714 77.9375 489.039 78.5403 486.449 79.1355C485.35 79.5312 484.142 79.5033 483.062 79.0574C482.443 78.655 481.972 78.0609 481.722 77.3659C480.587 74.6132 481.648 71.3776 483.471 69.0235C485.295 66.6694 487.791 64.9485 490.033 62.9887C495.394 58.2849 499.333 52.1756 501.404 45.3511C505.641 43.576 510.027 41.1641 514.264 39.3889C520.796 36.0818 528.121 34.6626 535.415 35.2908L549.763 35.5649C554.011 35.646 558.374 35.75 562.302 37.3695C566.23 38.989 569.682 42.4917 569.953 46.7318C570.035 47.2118 569.993 47.7048 569.832 48.1643C569.671 48.6239 569.396 49.0351 569.033 49.3593C568.478 49.662 567.85 49.8036 567.219 49.7681C563.257 49.9074 561.568 50.8945 557.606 51.0337Z" fill="#103E4E"/>
<path d="M443.243 96.0011C443.803 95.4705 444.207 94.7956 444.409 94.0507C444.611 93.3057 444.604 92.5195 444.388 91.7784C443.024 91.2521 441.54 91.1169 440.103 91.3882C438.666 91.6595 437.334 92.3265 436.256 93.314C435.406 94.1738 434.673 95.1422 434.077 96.1941C432.192 99.2701 430.524 102.944 431.617 106.383C431.706 106.758 431.869 107.111 432.097 107.422C432.324 107.733 432.611 107.996 432.942 108.194C433.431 108.391 433.959 108.474 434.486 108.436C436.563 108.434 438.638 108.306 440.699 108.054C441.965 107.899 443.436 107.542 443.925 106.364C444.568 104.815 443.012 103.063 443.465 101.449C443.764 100.727 444.216 100.079 444.791 99.5501C445.076 99.2838 445.296 98.9547 445.431 98.5889C445.567 98.2231 445.616 97.8307 445.573 97.4428C445.39 96.6855 444.23 96.2558 443.813 96.9138" fill="#103E4E"/>
<path d="M454.014 82.0377C452.169 81.614 450.267 81.4946 448.383 81.6841C447.966 81.6717 447.554 81.7655 447.183 81.9568C446.824 82.2214 446.564 82.5982 446.444 83.0274C446.046 84.3043 446.144 85.6842 446.718 86.8923C447.292 88.1003 448.3 89.0478 449.541 89.5461C450.217 89.7016 450.865 89.962 451.461 90.3178C453.054 91.5534 452.039 94.079 452.34 96.0719C452.679 98.3099 454.845 100.188 454.448 102.417C454.135 104.172 452.26 105.562 452.562 107.32C452.878 109.16 455.214 109.713 457.075 109.861C458.154 110.05 459.265 109.922 460.273 109.494C461.284 108.803 462.003 107.762 462.291 106.572C463.053 104.304 463.373 101.91 463.234 99.5204C463.226 98.4336 462.953 97.3653 462.439 96.4078C461.878 95.6492 461.257 94.9376 460.581 94.2799C457.014 90.1307 460.77 83.9417 454.014 82.0377Z" fill="#103E4E"/>
<path opacity="0.8" d="M923.076 407.073C923.076 407.073 649.874 250.251 532.257 279.964C532.257 279.964 282.992 306.789 254.104 365.804C254.104 365.804 174.867 118.19 145.979 109.936" stroke="#ED1B36" stroke-width="2" stroke-miterlimit="10"/>
<path opacity="0.8" d="M254.104 365.804C299.912 243.648 494 120 494 120C442.5 203 532.257 279.964 532.257 279.964C532.257 279.964 274.738 92.6027 145.979 109.936C145.979 109.936 713.016 128.507 923.076 407.073" stroke="#ED1B36" stroke-width="2" stroke-miterlimit="10"/>
<path d="M145.978 121.904C152.588 121.904 157.946 116.545 157.946 109.936C157.946 103.326 152.588 97.9677 145.978 97.9677C139.368 97.9677 134.01 103.326 134.01 109.936C134.01 116.545 139.368 121.904 145.978 121.904Z" fill="#ED1B36"/>
<path d="M254.103 377.772C260.713 377.772 266.071 372.414 266.071 365.804C266.071 359.194 260.713 353.836 254.103 353.836C247.493 353.836 242.135 359.194 242.135 365.804C242.135 372.414 247.493 377.772 254.103 377.772Z" fill="#ED1B36"/>
<path d="M495.968 131.936C502.578 131.936 507.936 126.578 507.936 119.968C507.936 113.358 502.578 108 495.968 108C489.358 108 484 113.358 484 119.968C484 126.578 489.358 131.936 495.968 131.936Z" fill="#ED1B36"/>
<path d="M923.075 419.041C929.685 419.041 935.044 413.683 935.044 407.073C935.044 400.463 929.685 395.105 923.075 395.105C916.466 395.105 911.107 400.463 911.107 407.073C911.107 413.683 916.466 419.041 923.075 419.041Z" fill="#ED1B36"/>
<path d="M532.257 291.932C538.867 291.932 544.225 286.574 544.225 279.964C544.225 273.355 538.867 267.996 532.257 267.996C525.647 267.996 520.289 273.355 520.289 279.964C520.289 286.574 525.647 291.932 532.257 291.932Z" fill="#ED1B36"/>
<path d="M324.719 269.536C324.927 270.339 324.599 271.367 324.045 271.853C323.471 272.259 323.163 273.367 323.392 274.25C323.62 275.134 324.365 275.713 325.001 275.548C325.638 275.383 326.299 275.64 326.403 276.042C326.528 276.524 326.116 277.23 325.542 277.636C324.037 278.711 324.487 279.794 327.219 281.487C331.497 284.236 333.054 282.376 332.498 274.978C332.396 272.948 331.988 272.025 331.431 272.169C330.953 272.293 330.68 272.878 330.805 273.36C331.366 275.528 330.963 280.86 330.247 281.046C329.769 281.169 328.661 278.2 327.683 274.425C326.644 270.409 325.597 267.68 325.12 267.804C324.722 267.907 324.511 268.733 324.719 269.536Z" fill="#ED1B36"/>
<path d="M309.082 249.16C308.591 249.887 308.55 251.697 309.025 253.203C309.628 255.532 309.97 255.872 311.521 255.299C313.209 254.605 314.137 255.564 312.933 256.819C311.729 258.073 314.627 260.408 316.153 259.413C317.104 258.824 317.925 259.04 318.873 260.08C320.629 261.939 320.314 262.364 314.369 266.302C309.813 269.367 309.356 269.571 307.67 268.637C306.687 268.12 305.247 267.807 304.451 268.013C303.257 268.322 303.223 268.845 304.449 271.613C305.266 273.458 306.302 275.161 306.825 275.54C307.327 275.839 307.936 276.881 308.206 277.925C308.997 280.977 311.775 279.572 312.255 275.848C312.573 273.795 313.278 272.584 314.313 272.316C315.188 272.089 316.039 271.44 316.233 270.876C316.561 269.848 314.454 270.565 308.758 273.497C305.087 275.39 308.069 272.475 314.19 268.234C323.837 261.537 334.563 255.075 337.269 254.374L339.737 253.736L338.222 255.756C336.883 257.474 334.347 259.159 323.163 265.825C321.478 266.861 320.292 267.854 320.555 268.215C320.877 268.474 323.261 267.514 325.918 265.969C330.638 263.204 330.638 263.204 331.393 264.809C332.148 266.413 332.228 266.392 332.327 264.481C332.434 263.254 334.029 261.212 336.977 258.821C340.399 255.964 341.343 254.691 340.834 253.709C339.916 251.804 332.756 254 327.507 257.673C325.449 259.235 323.248 260.576 322.691 260.72C322.213 260.844 320.202 259.307 318.326 257.308C316.39 255.409 313.652 253.033 312.226 252.117C307.466 249.15 310.816 248.968 316.673 251.908C322.048 254.63 324.07 255.221 323.059 253.94C322.37 252.919 311.417 247.356 310.622 247.562C310.224 247.665 309.473 248.373 309.082 249.16ZM307.809 270.486C308.214 271.067 307.979 271.47 307.28 271.394C306.681 271.378 305.878 270.9 305.573 270.379C305.168 269.799 305.403 269.395 306.103 269.471C306.701 269.487 307.504 269.965 307.809 270.486ZM310.974 275.494C311.078 275.896 310.888 276.802 310.657 277.548C310.269 278.676 310.089 278.637 309.694 277.111C309.445 276.147 309.635 275.241 310.033 275.138C310.51 275.014 310.891 275.173 310.974 275.494Z" fill="#ED1B36"/>
<path d="M373.577 131.322C374.062 130.648 375.061 130.243 375.789 130.357C376.469 130.539 377.517 130.066 378.05 129.325C378.582 128.584 378.55 127.642 378.016 127.258C377.482 126.874 377.257 126.201 377.499 125.865C377.789 125.46 378.596 125.325 379.275 125.506C381.065 125.975 381.609 124.936 381.162 121.754C380.536 116.707 378.111 116.701 372.782 121.862C371.286 123.239 370.839 124.143 371.306 124.479C371.707 124.767 372.331 124.603 372.622 124.199C373.929 122.379 378.284 119.277 378.885 119.709C379.286 119.997 377.713 122.749 375.437 125.916C373.017 129.284 371.589 131.834 371.99 132.122C372.324 132.362 373.093 131.995 373.577 131.322Z" fill="#ED1B36"/>
<path d="M367.925 156.376C368.798 156.289 370.215 155.162 371.069 153.834C372.473 151.88 372.514 151.399 371.082 150.574C369.468 149.721 369.612 148.394 371.346 148.516C373.081 148.639 373.021 144.918 371.28 144.382C370.218 144.028 369.859 143.259 370.051 141.865C370.357 139.326 370.885 139.296 377.715 141.344C382.986 142.885 383.436 143.105 383.796 144.999C384.028 146.085 384.709 147.391 385.376 147.871C386.378 148.591 386.802 148.283 388.144 145.569C389.039 143.761 389.685 141.875 389.642 141.231C389.55 140.654 389.961 139.519 390.59 138.643C392.43 136.083 389.572 134.847 386.404 136.861C384.623 137.931 383.241 138.163 382.373 137.54C381.638 137.012 380.595 136.773 380.037 136.985C379.038 137.391 380.937 138.551 386.834 141.052C390.638 142.662 386.49 142.235 379.314 140.246C367.995 137.118 356.166 133.01 353.896 131.379L351.826 129.891L354.348 129.763C356.525 129.692 359.443 130.563 371.721 134.891C373.596 135.523 375.118 135.8 375.227 135.367C375.22 134.954 372.957 133.736 370.069 132.682C364.925 130.824 364.925 130.824 365.674 129.218C366.424 127.611 366.357 127.563 364.825 128.709C363.813 129.413 361.224 129.493 357.5 128.758C353.115 127.957 351.532 128.046 351.103 129.065C350.227 130.99 356.496 135.086 362.677 136.77C365.194 137.353 367.633 138.186 368.1 138.521C368.501 138.809 368.608 141.338 368.272 144.059C368.051 146.761 367.977 150.386 368.186 152.069C368.952 157.625 366.668 155.167 365.18 148.785C363.832 142.912 362.992 140.98 362.655 142.577C362.311 143.76 365.044 155.736 365.712 156.216C366.046 156.456 367.07 156.579 367.925 156.376ZM385.128 143.708C385.315 143.025 385.776 142.948 386.165 143.534C386.535 144.004 386.682 144.927 386.477 145.495C386.29 146.178 385.829 146.255 385.44 145.669C385.07 145.199 384.923 144.276 385.128 143.708ZM386.951 138.072C387.194 137.735 388.011 137.301 388.733 137.002C389.848 136.577 389.933 136.74 389.013 138.021C388.432 138.829 387.614 139.263 387.28 139.023C386.88 138.735 386.758 138.341 386.951 138.072Z" fill="#ED1B36"/>
<path d="M720.192 318.901C719.872 319.666 718.989 320.286 718.254 320.338C717.551 320.314 716.636 321.01 716.284 321.852C715.931 322.694 716.174 323.605 716.781 323.859C717.387 324.113 717.758 324.717 717.598 325.1C717.406 325.559 716.651 325.873 715.948 325.849C714.099 325.794 713.802 326.929 714.953 329.929C716.697 334.706 719.062 334.167 723.094 327.94C724.242 326.262 724.475 325.28 723.944 325.058C723.489 324.867 722.917 325.168 722.725 325.627C721.86 327.693 718.314 331.695 717.631 331.41C717.176 331.219 718.09 328.184 719.595 324.587C721.197 320.76 722.014 317.955 721.559 317.764C721.18 317.606 720.513 318.136 720.192 318.901Z" fill="#ED1B36"/>
<path d="M720.066 293.217C719.235 293.498 718.107 294.915 717.574 296.401C716.646 298.62 716.713 299.098 718.294 299.58C720.058 300.049 720.217 301.374 718.499 301.645C716.782 301.915 717.677 305.527 719.493 305.658C720.608 305.765 721.13 306.433 721.256 307.835C721.529 310.377 721.022 310.525 713.906 310.065C708.423 309.749 707.936 309.635 707.159 307.871C706.689 306.865 705.732 305.745 704.973 305.427C703.836 304.951 703.492 305.347 702.794 308.292C702.328 310.256 702.123 312.239 702.31 312.857C702.529 313.398 702.384 314.596 701.967 315.591C700.75 318.499 703.813 319.062 706.447 316.387C707.942 314.944 709.237 314.407 710.223 314.819C711.057 315.168 712.127 315.167 712.623 314.834C713.506 314.215 711.394 313.511 705.086 312.399C701.017 311.686 705.155 311.169 712.594 311.495C724.327 311.998 736.777 313.341 739.356 314.42L741.707 315.404L739.278 316.097C737.173 316.655 734.134 316.462 721.197 315.005C719.228 314.811 717.683 314.883 717.674 315.329C717.774 315.731 720.253 316.409 723.304 316.786C728.734 317.44 728.734 317.44 728.365 319.174C727.996 320.908 728.071 320.94 729.307 319.478C730.135 318.565 732.639 317.905 736.433 317.784C740.886 317.579 742.408 317.137 742.597 316.046C743.018 313.974 735.989 311.392 729.587 311.142C727.003 311.139 724.44 310.876 723.909 310.654C723.454 310.463 722.782 308.024 722.497 305.296C722.104 302.614 721.361 299.065 720.78 297.473C718.785 292.231 721.562 294.113 724.447 299.997C727.081 305.416 728.334 307.109 728.303 305.478C728.373 304.248 723.017 293.193 722.258 292.875C721.879 292.716 720.853 292.826 720.066 293.217ZM706.151 309.428C706.122 310.135 705.691 310.314 705.18 309.831C704.713 309.456 704.363 308.589 704.435 307.99C704.464 307.283 704.896 307.104 705.406 307.587C705.873 307.962 706.224 308.829 706.151 309.428ZM705.642 315.33C705.482 315.713 704.782 316.32 704.147 316.773C703.155 317.438 703.036 317.298 703.644 315.843C704.029 314.925 704.728 314.318 705.107 314.477C705.563 314.668 705.77 315.024 705.642 315.33Z" fill="#ED1B36"/>
</svg>
